<svg width="27" height="23" viewBox="0 0 27 23" fill="none" xmlns="http://www.w3.org/2000/svg">
  <path d="M1.7263 10.4011C1.43486 10.4011 1.15536 10.5169 0.949282 10.723C0.743204 10.9291 0.627432 11.2086 0.627432 11.5C0.627432 11.7914 0.743204 12.0709 0.949282 12.277C1.15536 12.4831 1.43486 12.5989 1.7263 12.5989L23.0376 12.5989L14.1786 20.5722C14.0687 20.6679 13.9789 20.7845 13.9144 20.9152C13.85 21.0459 13.8122 21.1881 13.8032 21.3336C13.7942 21.479 13.8143 21.6248 13.8622 21.7625C13.9101 21.9001 13.985 22.0268 14.0823 22.1353C14.1797 22.2437 14.2977 22.3317 14.4293 22.3941C14.561 22.4565 14.7038 22.4921 14.8494 22.4988C14.995 22.5055 15.1405 22.4832 15.2773 22.4332C15.4142 22.3831 15.5398 22.3064 15.6467 22.2073L26.6353 12.3176C26.7501 12.2145 26.8418 12.0884 26.9047 11.9476C26.9675 11.8067 26.9999 11.6542 26.9999 11.5C26.9999 11.3458 26.9675 11.1933 26.9047 11.0524C26.8418 10.9116 26.7501 10.7855 26.6353 10.6824L15.6467 0.792685C15.5398 0.693651 15.4142 0.616877 15.2773 0.566828C15.1405 0.516781 14.995 0.494459 14.8494 0.501165C14.7038 0.507872 14.561 0.543468 14.4293 0.605886C14.2977 0.668303 14.1797 0.756294 14.0823 0.864735C13.985 0.973177 13.9101 1.0999 13.8622 1.23754C13.8143 1.37517 13.7942 1.52096 13.8032 1.66642C13.8122 1.81188 13.85 1.95411 13.9144 2.08482C13.9789 2.21553 14.0687 2.33212 14.1786 2.42779L23.0376 10.4011L1.7263 10.4011Z" fill="white" />
</svg>