<svg width="29" height="24" viewBox="0 0 29 24" fill="none" xmlns="http://www.w3.org/2000/svg">
<path d="M27.5712 13.1988C27.8892 13.1988 28.1941 13.0725 28.4189 12.8477C28.6437 12.6228 28.77 12.3179 28.77 12C28.77 11.6821 28.6437 11.3772 28.4189 11.1523C28.1941 10.9275 27.8892 10.8012 27.5712 10.8012H4.32251L13.9869 2.10304C14.1068 1.99867 14.2048 1.87149 14.2751 1.72889C14.3454 1.5863 14.3867 1.43114 14.3964 1.27246C14.4062 1.11377 14.3843 0.954729 14.3321 0.804583C14.2798 0.654438 14.1982 0.516192 14.0919 0.397892C13.9857 0.279592 13.857 0.183602 13.7134 0.11551C13.5697 0.0474179 13.4139 0.00858452 13.2551 0.00126958C13.0963 -0.00604536 12.9376 0.0183043 12.7883 0.0729018C12.639 0.127499 12.502 0.211254 12.3854 0.319289L0.397772 11.1081C0.272593 11.2205 0.172482 11.3581 0.10395 11.5117C0.0354179 11.6654 0 11.8317 0 12C0 12.1683 0.0354179 12.3346 0.10395 12.4883C0.172482 12.6419 0.272593 12.7795 0.397772 12.8919L12.3854 23.6807C12.502 23.7887 12.639 23.8725 12.7883 23.9271C12.9376 23.9817 13.0963 24.006 13.2551 23.9987C13.4139 23.9914 13.5697 23.9526 13.7134 23.8845C13.857 23.8164 13.9857 23.7204 14.0919 23.6021C14.1982 23.4838 14.2798 23.3456 14.3321 23.1954C14.3843 23.0453 14.4062 22.8862 14.3964 22.7275C14.3867 22.5689 14.3454 22.4137 14.2751 22.2711C14.2048 22.1285 14.1068 22.0013 13.9869 21.897L4.32251 13.1988H27.5712Z" fill="black"/>
</svg>
