<svg width="19" height="19" viewBox="0 0 19 19" fill="none" xmlns="http://www.w3.org/2000/svg">
<path fill-rule="evenodd" clip-rule="evenodd" d="M9.5 1.9C5.30264 1.9 1.9 5.30264 1.9 9.5C1.9 13.6973 5.30264 17.1 9.5 17.1C13.6973 17.1 17.1 13.6973 17.1 9.5C17.1 5.30264 13.6973 1.9 9.5 1.9ZM0 9.5C0 4.25329 4.25329 0 9.5 0C14.7467 0 19 4.25329 19 9.5C19 14.7467 14.7467 19 9.5 19C4.25329 19 0 14.7467 0 9.5ZM8.37096 6.67071C8.15596 6.96933 8.075 7.35619 8.075 7.6H6.175C6.175 7.05215 6.33154 6.25151 6.82904 5.56054C7.36142 4.82112 8.24037 4.275 9.5 4.275C11.0903 4.275 12.2335 5.20155 12.6336 6.4065C13.0262 7.58934 12.6751 9.00004 11.452 9.81545C10.7768 10.2656 10.6166 10.4938 10.5513 10.6461C10.4664 10.8443 10.45 11.0973 10.45 11.875H8.55C8.55 11.8403 8.54995 11.8055 8.5499 11.7705C8.54907 11.1532 8.54818 10.4967 8.80493 9.89765C9.09592 9.21871 9.64821 8.73443 10.398 8.23455C10.8517 7.9321 10.9756 7.44281 10.8303 7.0051C10.6923 6.58952 10.2847 6.175 9.5 6.175C8.85963 6.175 8.55108 6.42054 8.37096 6.67071ZM10.45 12.825V14.725H8.55V12.825H10.45Z" fill="#1E1E1E"/>
</svg>
