<svg width="19" height="24" viewBox="0 0 19 24" fill="none" xmlns="http://www.w3.org/2000/svg">
<path d="M2.29999 8.7C2.29999 4.7238 5.52379 1.5 9.49999 1.5C13.4762 1.5 16.7 4.7238 16.7 8.7C16.7 10.8024 15.8 12.6942 14.3612 14.0112C14.0888 14.2577 13.8575 14.5461 13.676 14.8656C12.396 14.1642 10.9595 13.7977 9.49999 13.8C7.98679 13.8 6.56359 14.1864 5.32399 14.8656C5.14252 14.5461 4.91121 14.2577 4.63879 14.0112C3.90076 13.3374 3.31152 12.517 2.90879 11.6025C2.50606 10.6879 2.2987 9.69932 2.29999 8.7ZM5.79799 16.323C6.91592 15.6515 8.19589 15.2978 9.49999 15.3C10.8536 15.3 12.1202 15.6738 13.202 16.323L12.695 18.3H6.30499L5.79799 16.323ZM7.12159 21.4854L6.68959 19.8H12.3104L11.8784 21.4854C11.8039 21.7757 11.635 22.033 11.3981 22.2167C11.1613 22.4004 10.8701 22.5001 10.5704 22.5H8.42959C8.12987 22.5001 7.83865 22.4004 7.60183 22.2167C7.36501 22.033 7.19605 21.7757 7.12159 21.4854ZM9.49999 0C4.69519 0 0.799988 3.8952 0.799988 8.7C0.799988 11.241 1.89019 13.5282 3.62599 15.1176C3.89479 15.3636 4.07479 15.6414 4.14799 15.927L5.66899 21.858C5.82612 22.4707 6.1826 23.0137 6.68229 23.4015C7.18198 23.7893 7.79647 23.9999 8.42899 24H10.571C11.2035 23.9999 11.818 23.7893 12.3177 23.4015C12.8174 23.0137 13.1739 22.4707 13.331 21.858L14.852 15.927C14.9252 15.6414 15.1052 15.3642 15.374 15.117C16.2655 14.3028 16.9773 13.3115 17.4639 12.2066C17.9505 11.1017 18.2012 9.90734 18.2 8.7C18.2 3.8952 14.3048 0 9.49999 0ZM6.79999 8.7C6.79999 7.98392 7.08445 7.29716 7.5908 6.79081C8.09715 6.28446 8.7839 6 9.49999 6C10.2161 6 10.9028 6.28446 11.4092 6.79081C11.9155 7.29716 12.2 7.98392 12.2 8.7C12.2 9.41609 11.9155 10.1028 11.4092 10.6092C10.9028 11.1155 10.2161 11.4 9.49999 11.4C8.7839 11.4 8.09715 11.1155 7.5908 10.6092C7.08445 10.1028 6.79999 9.41609 6.79999 8.7ZM9.49999 4.5C8.38608 4.5 7.31779 4.9425 6.53014 5.73015C5.74249 6.5178 5.29999 7.58609 5.29999 8.7C5.29999 9.81391 5.74249 10.8822 6.53014 11.6698C7.31779 12.4575 8.38608 12.9 9.49999 12.9C10.6139 12.9 11.6822 12.4575 12.4698 11.6698C13.2575 10.8822 13.7 9.81391 13.7 8.7C13.7 7.58609 13.2575 6.5178 12.4698 5.73015C11.6822 4.9425 10.6139 4.5 9.49999 4.5Z" fill="black"/>
</svg>
