<svg width="20" height="20" viewBox="0 0 20 20" fill="none" xmlns="http://www.w3.org/2000/svg">
<path fill-rule="evenodd" clip-rule="evenodd" d="M0.931139 6.27444C0.982621 6.17782 1.05264 6.09229 1.13718 6.02274C1.22173 5.95319 1.31916 5.90099 1.42389 5.8691C1.52862 5.83722 1.63861 5.82628 1.74757 5.83692C1.85653 5.84756 1.96233 5.87957 2.05892 5.93111L10 10.1667L17.9411 5.93111C18.1362 5.82709 18.3646 5.80482 18.5761 5.86921C18.7876 5.93359 18.9649 6.07936 19.0689 6.27444C19.1729 6.46952 19.1952 6.69794 19.1308 6.90944C19.0664 7.12094 18.9207 7.2982 18.7256 7.40222L10.3923 11.8467C10.2715 11.9111 10.1368 11.9447 10 11.9447C9.86322 11.9447 9.72852 11.9111 9.60781 11.8467L1.27447 7.40222C1.17785 7.35074 1.09233 7.28072 1.02278 7.19617C0.953225 7.11163 0.901016 7.0142 0.869132 6.90947C0.837248 6.80474 0.826313 6.69475 0.836952 6.58579C0.847592 6.47683 0.879597 6.37103 0.931139 6.27444Z" fill="#1E1E1E"/>
<path fill-rule="evenodd" clip-rule="evenodd" d="M2.77745 3.61112C2.70378 3.61112 2.63313 3.64039 2.58103 3.69248C2.52894 3.74458 2.49967 3.81523 2.49967 3.8889V16.1111C2.49967 16.2645 2.62412 16.3889 2.77745 16.3889H17.2219C17.2956 16.3889 17.3662 16.3596 17.4183 16.3075C17.4704 16.2554 17.4997 16.1848 17.4997 16.1111V3.8889C17.4997 3.81523 17.4704 3.74458 17.4183 3.69248C17.3662 3.64039 17.2956 3.61112 17.2219 3.61112H2.77745ZM0.833008 3.8889C0.833008 2.81557 1.70412 1.94446 2.77745 1.94446H17.2219C18.2952 1.94446 19.1663 2.81557 19.1663 3.8889V16.1111C19.1663 16.6268 18.9615 17.1214 18.5968 17.4861C18.2322 17.8507 17.7376 18.0556 17.2219 18.0556H2.77745C2.26175 18.0556 1.76718 17.8507 1.40252 17.4861C1.03787 17.1214 0.833008 16.6268 0.833008 16.1111V3.8889Z" fill="#1E1E1E"/>
</svg>
