<svg width="20" height="20" viewBox="0 0 20 20" fill="none" xmlns="http://www.w3.org/2000/svg">
<path d="M3.49352 6.81801C3.49352 5.09251 4.17898 3.43769 5.39909 2.21758C6.6192 0.997463 8.27402 0.312012 9.99952 0.312012C11.725 0.312012 13.3798 0.997463 14.6 2.21758C15.8201 3.43769 16.5055 5.09251 16.5055 6.81801V8.82401C16.5055 9.32801 16.7055 9.81201 17.0625 10.169L18.5545 11.661C19.2798 12.3864 19.6874 13.3702 19.6875 14.396C19.6875 14.9556 19.4652 15.4923 19.0695 15.888C18.6738 16.2837 18.1371 16.506 17.5775 16.506H2.42152C1.86192 16.506 1.32523 16.2837 0.929528 15.888C0.533826 15.4923 0.311523 14.9556 0.311523 14.396C0.311523 13.37 0.719523 12.386 1.44552 11.661L2.93652 10.169C3.29352 9.81201 3.49352 9.32901 3.49352 8.82401V6.81801ZM2.18652 14.396C2.18652 14.526 2.29252 14.631 2.42152 14.631H17.5775C17.7075 14.631 17.8125 14.526 17.8125 14.396C17.8125 13.867 17.6025 13.36 17.2285 12.986L15.7365 11.495C15.0283 10.7865 14.6305 9.82576 14.6305 8.82401V6.81801C14.6305 5.58979 14.1426 4.41188 13.2741 3.5434C12.4057 2.67492 11.2277 2.18701 9.99952 2.18701C8.77131 2.18701 7.59339 2.67492 6.72491 3.5434C5.85643 4.41188 5.36852 5.58979 5.36852 6.81801V8.82401C5.36855 9.82576 4.97072 10.7865 4.26252 11.495L2.76952 12.987C2.39652 13.36 2.18652 13.867 2.18652 14.397V14.396ZM6.67652 18.75C6.67652 18.233 7.09552 17.813 7.61352 17.813H12.3855C12.6289 17.821 12.8596 17.9232 13.0289 18.0982C13.1982 18.2731 13.2929 18.507 13.2929 18.7505C13.2929 18.994 13.1982 19.2279 13.0289 19.4029C12.8596 19.5778 12.6289 19.6801 12.3855 19.688H7.61352C7.49031 19.6881 7.36827 19.664 7.25441 19.6169C7.14055 19.5698 7.03709 19.5007 6.94996 19.4136C6.86284 19.3264 6.79375 19.223 6.74666 19.1091C6.69956 18.9953 6.67639 18.8732 6.67652 18.75Z" fill="#1E1E1E"/>
</svg>
