<svg width="136" height="136" viewBox="0 0 136 136" fill="none" xmlns="http://www.w3.org/2000/svg">
<path opacity="0.2" d="M107.259 80.75C95.8906 95.625 74.2263 106.192 34.0638 101.931C29.8085 61.7631 40.375 40.104 55.25 28.7406V29.75C55.25 43.276 60.6232 56.2481 70.1876 65.8124C79.7519 75.3768 92.724 80.75 106.25 80.75H107.259Z" fill="#51A1C9"/>
<path d="M89.25 40.375C89.25 41.6359 88.8761 42.8684 88.1756 43.9168C87.4752 44.9651 86.4795 45.7822 85.3146 46.2648C84.1497 46.7473 82.868 46.8735 81.6313 46.6275C80.3947 46.3815 79.2588 45.7744 78.3672 44.8828C77.4757 43.9913 76.8685 42.8554 76.6225 41.6187C76.3765 40.3821 76.5028 39.1003 76.9853 37.9354C77.4678 36.7705 78.2849 35.7749 79.3333 35.0744C80.3816 34.3739 81.6142 34 82.875 34C84.5658 34 86.1873 34.6717 87.3828 35.8672C88.5784 37.0628 89.25 38.6843 89.25 40.375ZM106.006 88.5966C91.63 102.94 69.1263 108.97 38.8981 106.633C39.7446 112.951 40.9311 119.604 42.4575 126.592C42.6976 127.693 42.4905 128.844 41.8818 129.792C41.2731 130.741 40.3126 131.409 39.2116 131.649C38.9117 131.716 38.6052 131.75 38.2978 131.75C37.3298 131.748 36.3915 131.416 35.638 130.808C34.8845 130.201 34.361 129.354 34.1541 128.408C32.4151 120.465 31.1065 112.914 30.2281 105.756C23.074 104.874 15.5285 103.565 7.59158 101.83C6.49538 101.584 5.54107 100.915 4.93728 99.9672C4.3335 99.0198 4.12935 97.8719 4.36948 96.7745C4.60961 95.6771 5.27448 94.7193 6.21873 94.1107C7.16299 93.5021 8.3098 93.2921 9.40845 93.5266C16.3891 95.0495 23.0368 96.236 29.3516 97.086C27.0194 66.8632 33.0703 44.3647 47.4141 29.9944C70.6563 6.68314 107.541 13.2281 114.697 14.7794C116.295 15.1276 117.759 15.9276 118.916 17.0841C120.072 18.2407 120.872 19.7051 121.221 21.3031C122.772 28.4591 129.322 65.3438 106.006 88.5966ZM98.0369 84.405C86.3468 82.6391 75.5301 77.1739 67.173 68.8111C58.816 60.4483 53.3583 49.6279 51.6003 37.9366C40.1413 50.8725 35.5938 71.0122 37.9419 98.0422C64.9772 100.406 85.1169 95.8588 98.0528 84.405H98.0369ZM112.912 23.1041C104.311 21.3259 95.4943 20.8282 86.7478 21.6272C75.9953 22.6897 66.8791 25.7869 59.5213 30.9028C59.8135 42.9003 64.7084 54.326 73.1925 62.814C81.6765 71.302 93.0999 76.2022 105.097 76.5C110.208 69.1422 113.326 60.0313 114.373 49.2735C115.169 40.5258 114.676 31.7088 112.912 23.1041Z" fill="#51A1C9"/>
</svg>
