<svg width="25" height="26" viewBox="0 0 25 26" fill="none" xmlns="http://www.w3.org/2000/svg">
<path fill-rule="evenodd" clip-rule="evenodd" d="M7.05212 11.4167C7.05212 10.1044 7.57342 8.84588 8.50134 7.91796C9.42925 6.99005 10.6878 6.46875 12 6.46875C13.3123 6.46875 14.5708 6.99005 15.4987 7.91796C16.4267 8.84588 16.948 10.1044 16.948 11.4167C16.948 12.7289 16.4267 13.9875 15.4987 14.9154C14.5708 15.8433 13.3123 16.3646 12 16.3646C10.6878 16.3646 9.42925 15.8433 8.50134 14.9154C7.57342 13.9875 7.05212 12.7289 7.05212 11.4167ZM12 8.03125C11.1022 8.03125 10.2411 8.38793 9.60619 9.02282C8.9713 9.6577 8.61462 10.5188 8.61462 11.4167C8.61462 12.3145 8.9713 13.1756 9.60619 13.8105C10.2411 14.4454 11.1022 14.8021 12 14.8021C12.8979 14.8021 13.759 14.4454 14.3939 13.8105C15.0288 13.1756 15.3855 12.3145 15.3855 11.4167C15.3855 10.5188 15.0288 9.6577 14.3939 9.02282C13.759 8.38793 12.8979 8.03125 12 8.03125Z" fill="#777777"/>
<path fill-rule="evenodd" clip-rule="evenodd" d="M3.1709 10.2261C3.34895 8.06647 4.33259 6.05281 5.92654 4.58488C7.52048 3.11694 9.60816 2.30209 11.7751 2.30209H12.2251C14.392 2.30209 16.4797 3.11694 18.0736 4.58488C19.6675 6.05281 20.6512 8.06647 20.8292 10.2261C21.0274 12.6316 20.2842 15.0201 18.7563 16.8886L13.7636 22.9938C13.5499 23.255 13.2809 23.4656 12.9759 23.6102C12.6709 23.7547 12.3376 23.8297 12.0001 23.8297C11.6625 23.8297 11.3292 23.7547 11.0242 23.6102C10.7192 23.4656 10.4502 23.255 10.2365 22.9938L5.24382 16.8886C3.71581 15.0201 2.97266 12.6316 3.1709 10.2261ZM11.7751 3.86459C10.0006 3.86486 8.29104 4.53233 6.98582 5.73451C5.68059 6.93669 4.8751 8.58568 4.72923 10.3542C4.56423 12.3561 5.18266 14.344 6.45423 15.899L11.4469 22.0052C11.5141 22.0874 11.5986 22.1536 11.6944 22.199C11.7903 22.2445 11.895 22.2681 12.0011 22.2681C12.1072 22.2681 12.2119 22.2445 12.3078 22.199C12.4036 22.1536 12.4882 22.0874 12.5553 22.0052L17.548 15.899C18.8188 14.3436 19.4365 12.3558 19.2709 10.3542C19.125 8.58551 18.3194 6.93636 17.0139 5.73416C15.7085 4.53195 13.9987 3.8646 12.224 3.86459H11.774H11.7751Z" fill="#777777"/>
</svg>
