<svg width="30" height="31" viewBox="0 0 30 31" fill="none" xmlns="http://www.w3.org/2000/svg">
<g id="ph:seal-check-duotone">
<g id="Group">
<path id="Vector" opacity="0.2" d="M27.1875 15.5C27.1875 16.966 25.0992 18.0723 24.5297 19.448C23.9813 20.7746 24.6961 23.0398 23.618 24.118C22.5398 25.1961 20.2746 24.4813 18.948 25.0297C17.5781 25.5992 16.4648 27.6875 15 27.6875C13.5352 27.6875 12.4219 25.5992 11.052 25.0297C9.72539 24.4813 7.46016 25.1961 6.38203 24.118C5.30391 23.0398 6.01875 20.7746 5.47031 19.448C4.90078 18.0781 2.8125 16.9648 2.8125 15.5C2.8125 14.0352 4.90078 12.9219 5.47031 11.552C6.01875 10.2266 5.30391 7.96016 6.38203 6.88203C7.46016 5.80391 9.72656 6.51875 11.052 5.97031C12.4277 5.40078 13.5352 3.3125 15 3.3125C16.4648 3.3125 17.5781 5.40078 18.948 5.97031C20.2746 6.51875 22.5398 5.80391 23.618 6.88203C24.6961 7.96016 23.9813 10.2254 24.5297 11.552C25.0992 12.9277 27.1875 14.0352 27.1875 15.5Z" fill="#268ABC"/>
<path id="Vector_2" d="M26.468 12.5492C26.0262 12.0875 25.5691 11.6117 25.3969 11.1934C25.2375 10.8102 25.2281 10.175 25.2188 9.55977C25.2012 8.41602 25.1824 7.11992 24.2812 6.21875C23.3801 5.31758 22.084 5.29883 20.9402 5.28125C20.325 5.27187 19.6898 5.2625 19.3066 5.10312C18.8895 4.93086 18.4125 4.47383 17.9508 4.03203C17.1422 3.25508 16.2234 2.375 15 2.375C13.7766 2.375 12.859 3.25508 12.0492 4.03203C11.5875 4.47383 11.1117 4.93086 10.6934 5.10312C10.3125 5.2625 9.675 5.27187 9.05977 5.28125C7.91602 5.29883 6.61992 5.31758 5.71875 6.21875C4.81758 7.11992 4.80469 8.41602 4.78125 9.55977C4.77187 10.175 4.7625 10.8102 4.60312 11.1934C4.43086 11.6105 3.97383 12.0875 3.53203 12.5492C2.75508 13.3578 1.875 14.2766 1.875 15.5C1.875 16.7234 2.75508 17.641 3.53203 18.4508C3.97383 18.9125 4.43086 19.3883 4.60312 19.8066C4.7625 20.1898 4.77187 20.825 4.78125 21.4402C4.79883 22.584 4.81758 23.8801 5.71875 24.7812C6.61992 25.6824 7.91602 25.7012 9.05977 25.7188C9.675 25.7281 10.3102 25.7375 10.6934 25.8969C11.1105 26.0691 11.5875 26.5262 12.0492 26.968C12.8578 27.7449 13.7766 28.625 15 28.625C16.2234 28.625 17.141 27.7449 17.9508 26.968C18.4125 26.5262 18.8883 26.0691 19.3066 25.8969C19.6898 25.7375 20.325 25.7281 20.9402 25.7188C22.084 25.7012 23.3801 25.6824 24.2812 24.7812C25.1824 23.8801 25.2012 22.584 25.2188 21.4402C25.2281 20.825 25.2375 20.1898 25.3969 19.8066C25.5691 19.3895 26.0262 18.9125 26.468 18.4508C27.2449 17.6422 28.125 16.7234 28.125 15.5C28.125 14.2766 27.2449 13.359 26.468 12.5492ZM25.1145 17.1535C24.5531 17.7395 23.9719 18.3453 23.6637 19.0895C23.3684 19.8043 23.3555 20.6211 23.3438 21.4121C23.332 22.2324 23.3191 23.0914 22.9547 23.4547C22.5902 23.818 21.7371 23.832 20.9121 23.8438C20.1211 23.8555 19.3043 23.8684 18.5895 24.1637C17.8453 24.4719 17.2395 25.0531 16.6535 25.6145C16.0676 26.1758 15.4688 26.75 15 26.75C14.5312 26.75 13.9277 26.1734 13.3465 25.6145C12.7652 25.0555 12.1547 24.4719 11.4105 24.1637C10.6957 23.8684 9.87891 23.8555 9.08789 23.8438C8.26758 23.832 7.40859 23.8191 7.04531 23.4547C6.68203 23.0902 6.66797 22.2371 6.65625 21.4121C6.64453 20.6211 6.63164 19.8043 6.33633 19.0895C6.02812 18.3453 5.44687 17.7395 4.88555 17.1535C4.32422 16.5676 3.75 15.9688 3.75 15.5C3.75 15.0312 4.32656 14.4277 4.88555 13.8465C5.44453 13.2652 6.02812 12.6547 6.33633 11.9105C6.63164 11.1957 6.64453 10.3789 6.65625 9.58789C6.66797 8.76758 6.68086 7.90859 7.04531 7.54531C7.40977 7.18203 8.26289 7.16797 9.08789 7.15625C9.87891 7.14453 10.6957 7.13164 11.4105 6.83633C12.1547 6.52812 12.7605 5.94687 13.3465 5.38555C13.9324 4.82422 14.5312 4.25 15 4.25C15.4688 4.25 16.0723 4.82656 16.6535 5.38555C17.2348 5.94453 17.8453 6.52812 18.5895 6.83633C19.3043 7.13164 20.1211 7.14453 20.9121 7.15625C21.7324 7.16797 22.5914 7.18086 22.9547 7.54531C23.318 7.90977 23.332 8.76289 23.3438 9.58789C23.3555 10.3789 23.3684 11.1957 23.6637 11.9105C23.9719 12.6547 24.5531 13.2605 25.1145 13.8465C25.6758 14.4324 26.25 15.0312 26.25 15.5C26.25 15.9688 25.6734 16.5723 25.1145 17.1535ZM20.3508 12.0242C20.4379 12.1113 20.5071 12.2147 20.5543 12.3285C20.6015 12.4423 20.6257 12.5643 20.6257 12.6875C20.6257 12.8107 20.6015 12.9327 20.5543 13.0465C20.5071 13.1603 20.4379 13.2637 20.3508 13.3508L13.7883 19.9133C13.7012 20.0004 13.5978 20.0696 13.484 20.1168C13.3702 20.164 13.2482 20.1882 13.125 20.1882C13.0018 20.1882 12.8798 20.164 12.766 20.1168C12.6522 20.0696 12.5488 20.0004 12.4617 19.9133L9.64922 17.1008C9.56212 17.0137 9.49302 16.9103 9.44588 16.7965C9.39874 16.6827 9.37448 16.5607 9.37448 16.4375C9.37448 16.3143 9.39874 16.1923 9.44588 16.0785C9.49302 15.9647 9.56212 15.8613 9.64922 15.7742C9.82513 15.5983 10.0637 15.4995 10.3125 15.4995C10.4357 15.4995 10.5577 15.5237 10.6715 15.5709C10.7853 15.618 10.8887 15.6871 10.9758 15.7742L13.125 17.9246L19.0242 12.0242C19.1113 11.9371 19.2147 11.8679 19.3285 11.8207C19.4423 11.7735 19.5643 11.7493 19.6875 11.7493C19.8107 11.7493 19.9327 11.7735 20.0465 11.8207C20.1603 11.8679 20.2637 11.9371 20.3508 12.0242Z" fill="#268ABC"/>
</g>
</g>
</svg>
