<svg width="23" height="20" viewBox="0 0 23 20" fill="none" xmlns="http://www.w3.org/2000/svg">
<path d="M1.35743 16.6069C1.1187 16.7741 0.956148 17.0292 0.905541 17.3162C0.854933 17.6032 0.920413 17.8986 1.08757 18.1373C1.25473 18.376 1.50988 18.5386 1.79689 18.5892C2.0839 18.6398 2.37926 18.5743 2.61799 18.4072L20.0752 6.18348L17.3916 17.7962C17.3565 17.9376 17.3498 18.0846 17.372 18.2287C17.3941 18.3727 17.4447 18.5109 17.5208 18.6352C17.5969 18.7595 17.697 18.8674 17.8152 18.9527C17.9334 19.0379 18.0674 19.0988 18.2093 19.1318C18.3513 19.1648 18.4984 19.1692 18.642 19.1448C18.7857 19.1204 18.9231 19.0676 19.0462 18.9896C19.1693 18.9116 19.2757 18.8099 19.3591 18.6904C19.4425 18.5709 19.5013 18.436 19.5321 18.2935L22.8609 3.8895C22.8958 3.73927 22.8987 3.58338 22.8693 3.43196C22.84 3.28054 22.7791 3.137 22.6907 3.01066C22.6022 2.88432 22.4881 2.77802 22.3559 2.69867C22.2236 2.61932 22.0762 2.5687 21.923 2.5501L7.24916 0.7517C7.10478 0.731904 6.95789 0.741027 6.81707 0.778537C6.67624 0.816049 6.54428 0.881198 6.42887 0.970195C6.31346 1.05919 6.21691 1.17025 6.14484 1.29692C6.07276 1.42359 6.0266 1.56333 6.00904 1.708C5.99148 1.85268 6.00288 1.9994 6.04257 2.13963C6.08226 2.27986 6.14945 2.41079 6.24022 2.52481C6.33099 2.63882 6.44354 2.73364 6.57131 2.80375C6.69907 2.87385 6.83951 2.91784 6.98444 2.93316L18.8147 4.38321L1.35743 16.6069Z" fill="white"/>
</svg>
