<svg width="202" height="46" viewBox="0 0 202 46" fill="none" xmlns="http://www.w3.org/2000/svg">
<path opacity="0.2" d="M35.4902 27.2187C31.7285 32.1406 24.5601 35.6369 11.2711 34.2271C9.86311 20.9363 13.3593 13.7697 18.2812 10.0098V10.3438C18.2812 14.8193 20.0591 19.1115 23.2238 22.2762C26.3885 25.4409 30.6807 27.2187 35.1562 27.2187H35.4902Z" fill="#51A1C9"/>
<path d="M29.5313 13.8594C29.5313 14.2766 29.4076 14.6844 29.1759 15.0313C28.9441 15.3782 28.6146 15.6485 28.2292 15.8082C27.8438 15.9678 27.4196 16.0096 27.0105 15.9282C26.6013 15.8468 26.2254 15.6459 25.9304 15.3509C25.6354 15.0559 25.4345 14.6801 25.3531 14.2709C25.2717 13.8617 25.3135 13.4376 25.4732 13.0522C25.6328 12.6667 25.9032 12.3373 26.2501 12.1055C26.597 11.8737 27.0048 11.75 27.422 11.75C27.9814 11.75 28.5179 11.9722 28.9135 12.3678C29.3091 12.7634 29.5313 13.2999 29.5313 13.8594ZM35.0755 29.815C30.3188 34.5611 22.8728 36.5563 12.8708 35.7828C13.1509 37.8734 13.5435 40.0748 14.0485 42.3869C14.128 42.7512 14.0594 43.1322 13.858 43.446C13.6566 43.7598 13.3388 43.9808 12.9745 44.0604C12.8753 44.0827 12.7739 44.0939 12.6722 44.0938C12.3519 44.0931 12.0414 43.9832 11.7921 43.7822C11.5428 43.5811 11.3695 43.301 11.3011 42.9881C10.7257 40.3596 10.2927 37.8611 10.002 35.4928C7.63482 35.201 5.13814 34.768 2.51197 34.1938C2.14926 34.1124 1.83349 33.8908 1.63371 33.5774C1.43393 33.2639 1.36638 32.8841 1.44584 32.521C1.52529 32.1578 1.74528 31.841 2.05772 31.6396C2.37016 31.4382 2.74962 31.3687 3.11314 31.4463C5.42291 31.9502 7.62252 32.3428 9.71197 32.624C8.94029 22.6238 10.9425 15.1795 15.6886 10.4246C23.379 2.71133 35.5835 4.87695 37.9513 5.39023C38.48 5.50546 38.9646 5.77016 39.3473 6.15283C39.7299 6.53551 39.9946 7.02005 40.1099 7.54883C40.6231 9.9166 42.7905 22.1211 35.0755 29.815ZM32.4388 28.4281C28.5707 27.8438 24.9917 26.0355 22.2265 23.2684C19.4613 20.5013 17.6554 16.921 17.0737 13.0525C13.2821 17.3328 11.7774 23.9967 12.5544 32.9404C21.4999 33.7227 28.1638 32.218 32.444 28.4281H32.4388ZM37.3606 8.14473C34.5147 7.55635 31.5975 7.39168 28.7034 7.65605C25.1456 8.00762 22.1292 9.03242 19.6946 10.7252C19.7913 14.695 21.411 18.4755 24.2182 21.284C27.0254 24.0926 30.8052 25.714 34.7749 25.8125C36.4659 23.3779 37.4978 20.3633 37.844 16.8037C38.1074 13.9093 37.9445 10.9919 37.3606 8.14473Z" fill="#51A1C9"/>
<path d="M68.872 19.432C68.872 20.328 68.656 21.168 68.224 21.952C67.808 22.736 67.144 23.368 66.232 23.848C65.336 24.328 64.2 24.568 62.824 24.568H60.016V31H56.656V14.248H62.824C64.12 14.248 65.224 14.472 66.136 14.92C67.048 15.368 67.728 15.984 68.176 16.768C68.64 17.552 68.872 18.44 68.872 19.432ZM62.68 21.856C63.608 21.856 64.296 21.648 64.744 21.232C65.192 20.8 65.416 20.2 65.416 19.432C65.416 17.8 64.504 16.984 62.68 16.984H60.016V21.856H62.68ZM83.6176 24.064C83.6176 24.544 83.5856 24.976 83.5216 25.36H73.8016C73.8816 26.32 74.2176 27.072 74.8096 27.616C75.4016 28.16 76.1296 28.432 76.9936 28.432C78.2416 28.432 79.1296 27.896 79.6576 26.824H83.2816C82.8976 28.104 82.1616 29.16 81.0736 29.992C79.9856 30.808 78.6496 31.216 77.0656 31.216C75.7856 31.216 74.6336 30.936 73.6096 30.376C72.6016 29.8 71.8096 28.992 71.2336 27.952C70.6736 26.912 70.3936 25.712 70.3936 24.352C70.3936 22.976 70.6736 21.768 71.2336 20.728C71.7936 19.688 72.5776 18.888 73.5856 18.328C74.5936 17.768 75.7536 17.488 77.0656 17.488C78.3296 17.488 79.4576 17.76 80.4496 18.304C81.4576 18.848 82.2336 19.624 82.7776 20.632C83.3376 21.624 83.6176 22.768 83.6176 24.064ZM80.1376 23.104C80.1216 22.24 79.8096 21.552 79.2016 21.04C78.5936 20.512 77.8496 20.248 76.9696 20.248C76.1376 20.248 75.4336 20.504 74.8576 21.016C74.2976 21.512 73.9536 22.208 73.8256 23.104H80.1376ZM91.1581 31.216C90.0701 31.216 89.0941 31.024 88.2301 30.64C87.3661 30.24 86.6781 29.704 86.1661 29.032C85.6701 28.36 85.3981 27.616 85.3501 26.8H88.7341C88.7981 27.312 89.0461 27.736 89.4781 28.072C89.9261 28.408 90.4781 28.576 91.1341 28.576C91.7741 28.576 92.2701 28.448 92.6221 28.192C92.9901 27.936 93.1741 27.608 93.1741 27.208C93.1741 26.776 92.9501 26.456 92.5021 26.248C92.0701 26.024 91.3741 25.784 90.4141 25.528C89.4221 25.288 88.6061 25.04 87.9661 24.784C87.3421 24.528 86.7981 24.136 86.3341 23.608C85.8861 23.08 85.6621 22.368 85.6621 21.472C85.6621 20.736 85.8701 20.064 86.2861 19.456C86.7181 18.848 87.3261 18.368 88.1101 18.016C88.9101 17.664 89.8461 17.488 90.9181 17.488C92.5021 17.488 93.7661 17.888 94.7101 18.688C95.6541 19.472 96.1741 20.536 96.2701 21.88H93.0541C93.0061 21.352 92.7821 20.936 92.3821 20.632C91.9981 20.312 91.4781 20.152 90.8221 20.152C90.2141 20.152 89.7421 20.264 89.4061 20.488C89.0861 20.712 88.9261 21.024 88.9261 21.424C88.9261 21.872 89.1501 22.216 89.5981 22.456C90.0461 22.68 90.7421 22.912 91.6861 23.152C92.6461 23.392 93.4381 23.64 94.0621 23.896C94.6861 24.152 95.2221 24.552 95.6701 25.096C96.1341 25.624 96.3741 26.328 96.3901 27.208C96.3901 27.976 96.1741 28.664 95.7421 29.272C95.3261 29.88 94.7181 30.36 93.9181 30.712C93.1341 31.048 92.2141 31.216 91.1581 31.216ZM98.2842 24.352C98.2842 22.976 98.5642 21.776 99.1242 20.752C99.6842 19.712 100.46 18.912 101.452 18.352C102.444 17.776 103.58 17.488 104.86 17.488C106.508 17.488 107.868 17.904 108.94 18.736C110.028 19.552 110.756 20.704 111.124 22.192H107.5C107.308 21.616 106.98 21.168 106.516 20.848C106.068 20.512 105.508 20.344 104.836 20.344C103.876 20.344 103.116 20.696 102.556 21.4C101.996 22.088 101.716 23.072 101.716 24.352C101.716 25.616 101.996 26.6 102.556 27.304C103.116 27.992 103.876 28.336 104.836 28.336C106.196 28.336 107.084 27.728 107.5 26.512H111.124C110.756 27.952 110.028 29.096 108.94 29.944C107.852 30.792 106.492 31.216 104.86 31.216C103.58 31.216 102.444 30.936 101.452 30.376C100.46 29.8 99.6842 29 99.1242 27.976C98.5642 26.936 98.2842 25.728 98.2842 24.352ZM119.49 31.216C118.21 31.216 117.058 30.936 116.034 30.376C115.01 29.8 114.202 28.992 113.61 27.952C113.034 26.912 112.746 25.712 112.746 24.352C112.746 22.992 113.042 21.792 113.634 20.752C114.242 19.712 115.066 18.912 116.106 18.352C117.146 17.776 118.306 17.488 119.586 17.488C120.866 17.488 122.026 17.776 123.066 18.352C124.106 18.912 124.922 19.712 125.514 20.752C126.122 21.792 126.426 22.992 126.426 24.352C126.426 25.712 126.114 26.912 125.49 27.952C124.882 28.992 124.05 29.8 122.994 30.376C121.954 30.936 120.786 31.216 119.49 31.216ZM119.49 28.288C120.098 28.288 120.666 28.144 121.194 27.856C121.738 27.552 122.17 27.104 122.49 26.512C122.81 25.92 122.97 25.2 122.97 24.352C122.97 23.088 122.634 22.12 121.962 21.448C121.306 20.76 120.498 20.416 119.538 20.416C118.578 20.416 117.77 20.76 117.114 21.448C116.474 22.12 116.154 23.088 116.154 24.352C116.154 25.616 116.466 26.592 117.09 27.28C117.73 27.952 118.53 28.288 119.49 28.288ZM141.442 17.704V31H138.058V29.32C137.626 29.896 137.058 30.352 136.354 30.688C135.666 31.008 134.914 31.168 134.098 31.168C133.058 31.168 132.138 30.952 131.338 30.52C130.538 30.072 129.906 29.424 129.442 28.576C128.994 27.712 128.77 26.688 128.77 25.504V17.704H132.13V25.024C132.13 26.08 132.394 26.896 132.922 27.472C133.45 28.032 134.17 28.312 135.082 28.312C136.01 28.312 136.738 28.032 137.266 27.472C137.794 26.896 138.058 26.08 138.058 25.024V17.704H141.442ZM154.526 14.248V26.008C154.526 27.64 154.054 28.912 153.11 29.824C152.166 30.72 150.902 31.168 149.318 31.168C147.718 31.168 146.422 30.704 145.43 29.776C144.454 28.848 143.966 27.552 143.966 25.888H147.326C147.342 26.608 147.51 27.168 147.83 27.568C148.166 27.968 148.646 28.168 149.27 28.168C149.878 28.168 150.342 27.976 150.662 27.592C150.982 27.208 151.142 26.68 151.142 26.008V14.248H154.526ZM164.349 31.216C163.069 31.216 161.917 30.936 160.893 30.376C159.869 29.8 159.061 28.992 158.469 27.952C157.893 26.912 157.605 25.712 157.605 24.352C157.605 22.992 157.901 21.792 158.493 20.752C159.101 19.712 159.925 18.912 160.965 18.352C162.005 17.776 163.165 17.488 164.445 17.488C165.725 17.488 166.885 17.776 167.925 18.352C168.965 18.912 169.781 19.712 170.373 20.752C170.981 21.792 171.285 22.992 171.285 24.352C171.285 25.712 170.973 26.912 170.349 27.952C169.741 28.992 168.909 29.8 167.853 30.376C166.813 30.936 165.645 31.216 164.349 31.216ZM164.349 28.288C164.957 28.288 165.525 28.144 166.053 27.856C166.597 27.552 167.029 27.104 167.349 26.512C167.669 25.92 167.829 25.2 167.829 24.352C167.829 23.088 167.493 22.12 166.821 21.448C166.165 20.76 165.357 20.416 164.397 20.416C163.437 20.416 162.629 20.76 161.973 21.448C161.333 22.12 161.013 23.088 161.013 24.352C161.013 25.616 161.325 26.592 161.949 27.28C162.589 27.952 163.389 28.288 164.349 28.288ZM177.11 19.648C177.542 19.008 178.134 18.488 178.886 18.088C179.654 17.688 180.526 17.488 181.502 17.488C182.638 17.488 183.662 17.768 184.574 18.328C185.502 18.888 186.23 19.688 186.758 20.728C187.302 21.752 187.574 22.944 187.574 24.304C187.574 25.664 187.302 26.872 186.758 27.928C186.23 28.968 185.502 29.776 184.574 30.352C183.662 30.928 182.638 31.216 181.502 31.216C180.51 31.216 179.638 31.024 178.886 30.64C178.15 30.24 177.558 29.728 177.11 29.104V31H173.75V13.24H177.11V19.648ZM184.142 24.304C184.142 23.504 183.974 22.816 183.638 22.24C183.318 21.648 182.886 21.2 182.342 20.896C181.814 20.592 181.238 20.44 180.614 20.44C180.006 20.44 179.43 20.6 178.886 20.92C178.358 21.224 177.926 21.672 177.59 22.264C177.27 22.856 177.11 23.552 177.11 24.352C177.11 25.152 177.27 25.848 177.59 26.44C177.926 27.032 178.358 27.488 178.886 27.808C179.43 28.112 180.006 28.264 180.614 28.264C181.238 28.264 181.814 28.104 182.342 27.784C182.886 27.464 183.318 27.008 183.638 26.416C183.974 25.824 184.142 25.12 184.142 24.304ZM195.103 31.216C194.015 31.216 193.039 31.024 192.175 30.64C191.311 30.24 190.623 29.704 190.111 29.032C189.615 28.36 189.343 27.616 189.295 26.8H192.679C192.743 27.312 192.991 27.736 193.423 28.072C193.871 28.408 194.423 28.576 195.079 28.576C195.719 28.576 196.215 28.448 196.567 28.192C196.935 27.936 197.119 27.608 197.119 27.208C197.119 26.776 196.895 26.456 196.447 26.248C196.015 26.024 195.319 25.784 194.359 25.528C193.367 25.288 192.551 25.04 191.911 24.784C191.287 24.528 190.743 24.136 190.279 23.608C189.831 23.08 189.607 22.368 189.607 21.472C189.607 20.736 189.815 20.064 190.231 19.456C190.663 18.848 191.271 18.368 192.055 18.016C192.855 17.664 193.791 17.488 194.863 17.488C196.447 17.488 197.711 17.888 198.655 18.688C199.599 19.472 200.119 20.536 200.215 21.88H196.999C196.951 21.352 196.727 20.936 196.327 20.632C195.943 20.312 195.423 20.152 194.767 20.152C194.159 20.152 193.687 20.264 193.351 20.488C193.031 20.712 192.871 21.024 192.871 21.424C192.871 21.872 193.095 22.216 193.543 22.456C193.991 22.68 194.687 22.912 195.631 23.152C196.591 23.392 197.383 23.64 198.007 23.896C198.631 24.152 199.167 24.552 199.615 25.096C200.079 25.624 200.319 26.328 200.335 27.208C200.335 27.976 200.119 28.664 199.687 29.272C199.271 29.88 198.663 30.36 197.863 30.712C197.079 31.048 196.159 31.216 195.103 31.216Z" fill="black"/>
</svg>